Input #0, mov,mp4,m4a,3gp,3g2,mj2, from '/home/hbattu/projects/huberman-gpt/huberman-audio/mp3/tmpngwx2f2k.mp4':
  Metadata:
    major_brand     : dash
    minor_version   : 0
    compatible_brands: iso6mp41
    creation_time   : 2022-02-03T02:03:53.000000Z
  Duration: 01:41:55.39, start: 0.000000, bitrate: 129 kb/s
    Stream #0:0(eng): Audio: aac (LC) (mp4a / 0x6134706D), 44100 Hz, stereo, fltp, 0 kb/s (default)
    Metadata:
      creation_time   : 2022-02-03T02:03:53.000000Z
      handler_name    : ISO Media file produced by Google Inc.
Stream mapping:
  Stream #0:0 -> #0:0 (aac (native) -> mp3 (libmp3lame))
Press [q] to stop, [?] for help
[graph_0_in_0_0 @ 0x55baa3d83640] tb:1/44100 samplefmt:fltp samplerate:44100 chlayout:0x3
Output #0, mp3, to '../huberman-audio/mp3/Ze2pc6NwsHQ.mp3':
  Metadata:
    major_brand     : dash
    minor_version   : 0
    compatible_brands: iso6mp41
    TSSE            : Lavf58.29.100
    Stream #0:0(eng): Audio: mp3 (libmp3lame), 44100 Hz, stereo, fltp, delay 1105 (default)
    Metadata:
      creation_time   : 2022-02-03T02:03:53.000000Z
      handler_name    : ISO Media file produced by Google Inc.
      encoder         : Lavc58.54.100 libmp3lame
No more output streams to write to, finishing.
size=   95554kB time=01:41:55.39 bitrate= 128.0kbits/s speed=87.7x    
[AVIOContext @ 0x55baa3c76900] Statistics: 0 seeks, 140 writeouts
video:0kB audio:95553kB subtitle:0kB other streams:0kB global headers:0kB muxing overhead: 0.000354%
Input file #0 (/home/hbattu/projects/huberman-gpt/huberman-audio/mp3/tmpngwx2f2k.mp4):
  Input stream #0:0 (audio): 263368 packets read (97846288 bytes); 263368 frames decoded (269688832 samples); 
  Total: 263368 packets (97846288 bytes) demuxed
Output file #0 (../huberman-audio/mp3/Ze2pc6NwsHQ.mp3):
  Output stream #0:0 (audio): 234105 frames encoded (269688832 samples); 234106 packets muxed (97846752 bytes); 
  Total: 234106 packets (97846752 bytes) muxed
[AVIOContext @ 0x55baa3c98080] Statistics: 2 seeks, 375 writeouts
[AVIOContext @ 0x55baa3c7f880] Statistics: 98971532 bytes read, 0 seeks
